<svg width="819" height="67" viewBox="0 0 819 67" fill="none" xmlns="http://www.w3.org/2000/svg">
<g clip-path="url(#clip0_166_415)">
<rect width="819" height="67" fill="#54CEC8"/>
<path d="M80.3438 29.1953C80.3438 30.7578 80.1406 32.2578 79.7344 33.6953C79.3438 35.1172 78.7812 36.4531 78.0469 37.7031C77.3281 38.9375 76.4609 40.0703 75.4453 41.1016C74.4297 42.1172 73.2969 42.9922 72.0469 43.7266C70.8125 44.4453 69.4766 45.0078 68.0391 45.4141C66.6016 45.8047 65.1094 46 63.5625 46H43.6406V41.1953H63.5625C65.2188 41.1953 66.7734 40.8828 68.2266 40.2578C69.6797 39.6328 70.9453 38.7812 72.0234 37.7031C73.1172 36.6094 73.9766 35.3359 74.6016 33.8828C75.2422 32.4141 75.5625 30.8516 75.5625 29.1953V17.1953H43.6406V12.3906H80.3438V29.1953ZM117.094 46H112.289V38.7578H93.7969V33.8594H112.289V24.3438H99.7969C98.625 24.3438 97.5234 24.5703 96.4922 25.0234C95.4609 25.4609 94.5625 26.0625 93.7969 26.8281C93.0312 27.5938 92.4219 28.4922 91.9688 29.5234C91.5312 30.5391 91.3125 31.6328 91.3125 32.8047V46H86.4609V32.8047C86.4609 30.9609 86.8125 29.2344 87.5156 27.625C88.2188 26.0156 89.1719 24.6094 90.375 23.4062C91.5781 22.2031 92.9922 21.2578 94.6172 20.5703C96.2422 19.8672 97.9688 19.5156 99.7969 19.5156H117.094V46ZM152.953 38.2188C152.953 39.2969 152.75 40.3125 152.344 41.2656C151.938 42.2031 151.383 43.0234 150.68 43.7266C149.992 44.4297 149.172 44.9844 148.219 45.3906C147.281 45.7969 146.273 46 145.195 46H122.766V41.1953H145.195C145.617 41.1953 146.008 41.125 146.367 40.9844C146.742 40.8281 147.062 40.6172 147.328 40.3516C147.609 40.0703 147.828 39.75 147.984 39.3906C148.141 39.0312 148.219 38.6406 148.219 38.2188C148.219 37.7969 148.141 37.4062 147.984 37.0469C147.828 36.6719 147.609 36.3516 147.328 36.0859C147.062 35.8047 146.742 35.5859 146.367 35.4297C146.008 35.2734 145.617 35.1953 145.195 35.1953H130.5C129.438 35.1953 128.438 34.9922 127.5 34.5859C126.562 34.1797 125.742 33.625 125.039 32.9219C124.336 32.2031 123.781 31.3672 123.375 30.4141C122.969 29.4609 122.766 28.4453 122.766 27.3672C122.766 26.3203 122.969 25.3281 123.375 24.3906C123.781 23.4375 124.336 22.6094 125.039 21.9062C125.742 21.2031 126.562 20.6484 127.5 20.2422C128.438 19.8203 129.438 19.6094 130.5 19.6094H151.195V24.3438H130.5C130.094 24.3438 129.703 24.4297 129.328 24.6016C128.969 24.7578 128.656 24.9766 128.391 25.2578C128.125 25.5234 127.914 25.8438 127.758 26.2188C127.602 26.5781 127.523 26.9609 127.523 27.3672C127.523 27.7891 127.602 28.1875 127.758 28.5625C127.914 28.9219 128.125 29.2422 128.391 29.5234C128.656 29.7891 128.969 30 129.328 30.1562C129.703 30.3125 130.094 30.3906 130.5 30.3906H145.195C146.273 30.3906 147.281 30.6016 148.219 31.0234C149.172 31.4297 149.992 31.9922 150.68 32.7109C151.383 33.4141 151.938 34.2422 152.344 35.1953C152.75 36.1484 152.953 37.1562 152.953 38.2188ZM185.695 46H180.891V35.2422H165.023V30.4375H180.891V19.6094H185.695V46ZM162.75 46H157.945V19.6094H162.75V46ZM248.32 36.3906C248.32 37.7344 248.07 38.9922 247.57 40.1641C247.07 41.3203 246.383 42.3359 245.508 43.2109C244.648 44.0703 243.633 44.75 242.461 45.25C241.305 45.75 240.062 46 238.734 46H209.531V41.1953H238.734C239.406 41.1953 240.031 41.0703 240.609 40.8203C241.188 40.5703 241.688 40.2266 242.109 39.7891C242.547 39.3516 242.891 38.8438 243.141 38.2656C243.391 37.6719 243.516 37.0469 243.516 36.3906C243.516 35.7344 243.391 35.1172 243.141 34.5391C242.891 33.9609 242.547 33.4531 242.109 33.0156C241.688 32.5781 241.188 32.2344 240.609 31.9844C240.031 31.7344 239.406 31.6094 238.734 31.6094H219.141C217.828 31.6094 216.586 31.3594 215.414 30.8594C214.242 30.3594 213.219 29.6797 212.344 28.8203C211.484 27.9453 210.797 26.9219 210.281 25.75C209.781 24.5781 209.531 23.3281 209.531 22C209.531 20.6875 209.781 19.4453 210.281 18.2734C210.797 17.1016 211.484 16.0859 212.344 15.2266C213.219 14.3516 214.242 13.6641 215.414 13.1641C216.586 12.6484 217.828 12.3906 219.141 12.3906H245.93V17.1953H219.141C218.484 17.1953 217.859 17.3203 217.266 17.5703C216.688 17.8203 216.18 18.1641 215.742 18.6016C215.305 19.0391 214.961 19.5547 214.711 20.1484C214.461 20.7266 214.336 21.3438 214.336 22C214.336 22.6562 214.461 23.2812 214.711 23.875C214.961 24.4531 215.305 24.9609 215.742 25.3984C216.18 25.8359 216.688 26.1797 217.266 26.4297C217.859 26.6797 218.484 26.8047 219.141 26.8047H238.734C240.062 26.8047 241.305 27.0625 242.461 27.5781C243.633 28.0781 244.648 28.7656 245.508 29.6406C246.383 30.5 247.07 31.5156 247.57 32.6875C248.07 33.8438 248.32 35.0781 248.32 36.3906ZM258.141 46H253.383V19.6094H258.141V46ZM289.312 46C289.312 44.25 289.016 42.5547 288.422 40.9141C287.844 39.2578 287.055 37.7031 286.055 36.25C285.07 34.7812 283.922 33.4141 282.609 32.1484C281.312 30.8828 279.945 29.7578 278.508 28.7734C277.07 27.7734 275.602 26.9375 274.102 26.2656C272.617 25.5781 271.203 25.0703 269.859 24.7422V46H265.055V19.6094H267.656V19.6562C269.375 19.75 271.203 20.1328 273.141 20.8047C275.094 21.4609 277.031 22.3594 278.953 23.5C280.891 24.625 282.75 25.9688 284.531 27.5312C286.328 29.0781 287.922 30.7891 289.312 32.6641V19.6094H294.094V46H289.312ZM328.805 46H311.766C309.906 46 308.219 45.6562 306.703 44.9688C305.188 44.2812 303.891 43.3438 302.812 42.1562C301.734 40.9531 300.898 39.5469 300.305 37.9375C299.727 36.3125 299.438 34.5703 299.438 32.7109C299.438 30.8672 299.727 29.1484 300.305 27.5547C300.898 25.9453 301.734 24.5469 302.812 23.3594C303.891 22.1719 305.188 21.2344 306.703 20.5469C308.219 19.8594 309.906 19.5156 311.766 19.5156H328.805V24.3438H311.766C310.609 24.3438 309.562 24.5625 308.625 25C307.703 25.4375 306.922 26.0312 306.281 26.7812C305.641 27.5312 305.148 28.4141 304.805 29.4297C304.461 30.4453 304.289 31.5391 304.289 32.7109C304.289 33.8984 304.461 35.0078 304.805 36.0391C305.148 37.0547 305.641 37.9453 306.281 38.7109C306.922 39.4609 307.703 40.0547 308.625 40.4922C309.562 40.9297 310.609 41.1484 311.766 41.1484H323.953V35.0547H310.195V30.2031H328.805V46ZM362.648 46H357.844V35.2422H341.977V30.4375H357.844V19.6094H362.648V46ZM339.703 46H334.898V19.6094H339.703V46ZM392.578 52H387.797V5.19531H392.578V52ZM454.266 12.3906L454.219 29.1953C454.219 30.7578 454.016 32.2578 453.609 33.6953C453.219 35.1172 452.656 36.4531 451.922 37.7031C451.203 38.9375 450.328 40.0703 449.297 41.1016C448.281 42.1172 447.148 42.9922 445.898 43.7266C444.664 44.4453 443.336 45.0078 441.914 45.4141C440.492 45.8047 439.008 46 437.461 46H433.922C432.375 46 430.883 45.8047 429.445 45.4141C428.023 45.0078 426.688 44.4375 425.438 43.7031C424.203 42.9688 423.078 42.0938 422.062 41.0781C421.047 40.0469 420.172 38.9141 419.438 37.6797C418.719 36.4297 418.156 35.0938 417.75 33.6719C417.359 32.2344 417.164 30.7422 417.164 29.1953V12.3906H421.969V29.1953C421.969 30.8516 422.281 32.4141 422.906 33.8828C423.531 35.3359 424.383 36.6094 425.461 37.7031C426.555 38.7812 427.828 39.6328 429.281 40.2578C430.734 40.8828 432.281 41.1953 433.922 41.1953H437.461C439.117 41.1953 440.672 40.8828 442.125 40.2578C443.578 39.6328 444.844 38.7812 445.922 37.7031C447 36.6094 447.852 35.3359 448.477 33.8828C449.102 32.4141 449.414 30.8516 449.414 29.1953V12.3906H454.219H454.266ZM496.242 46H489.961L476.812 32.4531L463.711 46H457.406L473.695 29.1953L457.406 12.3906H463.711L496.242 46ZM496.242 12.3906L481.594 27.4609L478.477 24.25L489.961 12.3906H496.242ZM557.859 29.1953C557.859 31.5234 557.484 33.7109 556.734 35.7578C556 37.8047 554.953 39.5859 553.594 41.1016C552.234 42.6172 550.602 43.8125 548.695 44.6875C546.805 45.5625 544.703 46 542.391 46H525.445V41.1953H542.391C544.047 41.1953 545.531 40.8828 546.844 40.2578C548.172 39.6328 549.289 38.7812 550.195 37.7031C551.117 36.6094 551.82 35.3359 552.305 33.8828C552.805 32.4141 553.055 30.8516 553.055 29.1953C553.055 27.5391 552.805 25.9844 552.305 24.5312C551.82 23.0781 551.117 21.8125 550.195 20.7344C549.289 19.6406 548.172 18.7812 546.844 18.1562C545.531 17.5156 544.047 17.1953 542.391 17.1953H523.055V46H518.25V12.3906H542.391C544.703 12.3906 546.805 12.8359 548.695 13.7266C550.602 14.6016 552.234 15.8047 553.594 17.3359C554.953 18.8516 556 20.6328 556.734 22.6797C557.484 24.7109 557.859 26.8828 557.859 29.1953ZM590.977 46H563.414V19.5156H590.977V24.3438H568.266V41.1484H590.977V46ZM587.906 35.0547H570.539V30.2031H587.906V35.0547ZM625.266 38.2188C625.266 39.2969 625.062 40.3125 624.656 41.2656C624.25 42.2031 623.695 43.0234 622.992 43.7266C622.305 44.4297 621.484 44.9844 620.531 45.3906C619.594 45.7969 618.586 46 617.508 46H595.078V41.1953H617.508C617.93 41.1953 618.32 41.125 618.68 40.9844C619.055 40.8281 619.375 40.6172 619.641 40.3516C619.922 40.0703 620.141 39.75 620.297 39.3906C620.453 39.0312 620.531 38.6406 620.531 38.2188C620.531 37.7969 620.453 37.4062 620.297 37.0469C620.141 36.6719 619.922 36.3516 619.641 36.0859C619.375 35.8047 619.055 35.5859 618.68 35.4297C618.32 35.2734 617.93 35.1953 617.508 35.1953H602.812C601.75 35.1953 600.75 34.9922 599.812 34.5859C598.875 34.1797 598.055 33.625 597.352 32.9219C596.648 32.2031 596.094 31.3672 595.688 30.4141C595.281 29.4609 595.078 28.4453 595.078 27.3672C595.078 26.3203 595.281 25.3281 595.688 24.3906C596.094 23.4375 596.648 22.6094 597.352 21.9062C598.055 21.2031 598.875 20.6484 599.812 20.2422C600.75 19.8203 601.75 19.6094 602.812 19.6094H623.508V24.3438H602.812C602.406 24.3438 602.016 24.4297 601.641 24.6016C601.281 24.7578 600.969 24.9766 600.703 25.2578C600.438 25.5234 600.227 25.8438 600.07 26.2188C599.914 26.5781 599.836 26.9609 599.836 27.3672C599.836 27.7891 599.914 28.1875 600.07 28.5625C600.227 28.9219 600.438 29.2422 600.703 29.5234C600.969 29.7891 601.281 30 601.641 30.1562C602.016 30.3125 602.406 30.3906 602.812 30.3906H617.508C618.586 30.3906 619.594 30.6016 620.531 31.0234C621.484 31.4297 622.305 31.9922 622.992 32.7109C623.695 33.4141 624.25 34.2422 624.656 35.1953C625.062 36.1484 625.266 37.1562 625.266 38.2188ZM635.016 46H630.258V19.6094H635.016V46ZM669.727 46H652.688C650.828 46 649.141 45.6562 647.625 44.9688C646.109 44.2812 644.812 43.3438 643.734 42.1562C642.656 40.9531 641.82 39.5469 641.227 37.9375C640.648 36.3125 640.359 34.5703 640.359 32.7109C640.359 30.8672 640.648 29.1484 641.227 27.5547C641.82 25.9453 642.656 24.5469 643.734 23.3594C644.812 22.1719 646.109 21.2344 647.625 20.5469C649.141 19.8594 650.828 19.5156 652.688 19.5156H669.727V24.3438H652.688C651.531 24.3438 650.484 24.5625 649.547 25C648.625 25.4375 647.844 26.0312 647.203 26.7812C646.562 27.5312 646.07 28.4141 645.727 29.4297C645.383 30.4453 645.211 31.5391 645.211 32.7109C645.211 33.8984 645.383 35.0078 645.727 36.0391C646.07 37.0547 646.562 37.9453 647.203 38.7109C647.844 39.4609 648.625 40.0547 649.547 40.4922C650.484 40.9297 651.531 41.1484 652.688 41.1484H664.875V35.0547H651.117V30.2031H669.727V46ZM700.078 46C700.078 44.25 699.781 42.5547 699.188 40.9141C698.609 39.2578 697.82 37.7031 696.82 36.25C695.836 34.7812 694.688 33.4141 693.375 32.1484C692.078 30.8828 690.711 29.7578 689.273 28.7734C687.836 27.7734 686.367 26.9375 684.867 26.2656C683.383 25.5781 681.969 25.0703 680.625 24.7422V46H675.82V19.6094H678.422V19.6562C680.141 19.75 681.969 20.1328 683.906 20.8047C685.859 21.4609 687.797 22.3594 689.719 23.5C691.656 24.625 693.516 25.9688 695.297 27.5312C697.094 29.0781 698.688 30.7891 700.078 32.6641V19.6094H704.859V46H700.078ZM739.336 46H711.773V19.5156H739.336V24.3438H716.625V41.1484H739.336V46ZM736.266 35.0547H718.898V30.2031H736.266V35.0547ZM775.758 46H769.219L761.719 38.8516H751.992V34.0938H765.281C765.953 34.0938 766.586 33.9609 767.18 33.6953C767.773 33.4297 768.289 33.0781 768.727 32.6406C769.164 32.1875 769.508 31.6641 769.758 31.0703C770.008 30.4766 770.133 29.8516 770.133 29.1953C770.133 28.5234 770.008 27.8984 769.758 27.3203C769.508 26.7266 769.164 26.2109 768.727 25.7734C768.289 25.3359 767.773 24.9922 767.18 24.7422C766.586 24.4766 765.953 24.3438 765.281 24.3438H749.484V46H744.68V19.6094H765.281C766.609 19.6094 767.859 19.8672 769.031 20.3828C770.203 20.8828 771.219 21.5703 772.078 22.4453C772.953 23.3047 773.641 24.3203 774.141 25.4922C774.641 26.6484 774.891 27.8828 774.891 29.1953C774.891 30.2734 774.719 31.3125 774.375 32.3125C774.031 33.2969 773.547 34.2031 772.922 35.0312C772.312 35.8438 771.586 36.5469 770.742 37.1406C769.898 37.7344 768.977 38.1719 767.977 38.4531L775.758 46Z" fill="#3A3939"/>
</g>
<defs>
<clipPath id="clip0_166_415">
<rect width="819" height="67" fill="white"/>
</clipPath>
</defs>
</svg>
